<svg width="69" height="22" viewBox="0 0 69 22" fill="none" xmlns="http://www.w3.org/2000/svg">
<path fill-rule="evenodd" clip-rule="evenodd" d="M14.3774 7.97877C12.7312 8.69492 8.73004 8.37922 6.06166 6.54758C4.11842 5.21371 1.04409 1.20861 0.184212 1.7857C-0.610193 2.31879 1.36731 4.94529 2.26709 6.13056C3.16687 7.31571 6.7748 10.5725 10.1503 10.9455C11.8964 11.1385 16.0028 11.5172 16.0028 12.7484C16.0028 13.5788 12.2598 15.1921 10.3862 15.5906C7.68339 16.1654 5.18195 15.0606 4.77086 15.3269C4.18243 15.7081 4.44923 16.7832 3.8072 17.5029C2.80975 18.621 0.236716 19.3183 0.295705 20.4024C0.341233 21.2404 1.58124 22.11 2.45434 21.9886C3.29048 21.8724 5.48523 20.9971 7.09753 20.0188C8.72098 19.0336 12.7533 17.3679 15.1337 17.1155C18.1652 16.7941 21.371 18.508 23.5763 18.1925C25.6326 17.8985 26.1352 16.9735 27.5678 15.7284C28.5566 14.8689 29.2187 13.9578 31.6151 13.9486C34.4762 13.9376 38.5719 16.8819 41.4704 18.2547C44.1155 19.5073 44.7303 20.0727 48.3116 19.6825C51.1547 19.3729 51.8049 18.6987 53.6102 18.1028C55.4019 17.5115 56.3769 17.0758 58.7081 16.95C60.3958 16.8588 61.1543 17.0585 61.8895 17.5375C63.0988 18.3253 64.4411 19.5541 64.9013 20.0837C65.4503 20.7153 68.2256 20.7088 68.8239 19.9409C69.4477 19.1404 68.232 18.4624 68.0022 18.3409C67.3524 17.9973 66.6999 17.4023 65.858 16.1592C65.0438 14.9571 64.5825 14.3689 62.9362 14.2487C61.4079 14.137 58.0565 14.9818 55.9927 14.608C54.0525 14.2566 52.916 13.6112 52.1499 12.6952C51.6118 12.052 52.8923 10.6455 53.4908 10.5193C54.7108 10.262 54.4741 11.0152 55.8888 11.3036C57.1446 11.5597 57.6177 11.0138 58.5898 10.9303C59.6229 10.8413 60.325 11.3133 61.1838 11.6855C62.064 12.0668 62.8172 12.3819 64.0049 11.7412C64.5883 11.4264 65.9693 10.6095 65.4925 9.56909C65.2471 9.03395 63.6359 7.96547 61.7473 7.34787C60.087 6.80499 60.506 5.41236 59.6608 4.88436C58.112 3.91672 56.4242 4.11489 55.6603 3.49245C54.7861 2.7803 52.771 -0.0024166 51.683 1.57507e-06C49.7602 0.00435429 51.0848 2.09632 50.5363 2.1685C49.3114 2.32943 48.1913 1.04574 46.8717 1.80118C45.3498 2.67233 43.8978 2.52542 43.8785 3.78832C43.8623 4.84603 47.497 3.95529 47.3586 5.00043C47.201 6.1909 42.7694 6.98817 41.8148 7.15647C40.4126 7.40373 34.3549 6.38894 31.4511 5.38129C28.3453 4.30363 23.5009 3.75168 20.5465 4.58837C17.6859 5.39846 16.0236 7.26275 14.3774 7.97877Z" fill="#463939"/>
</svg>
