<svg width="93" height="30" viewBox="0 0 93 30" fill="none" xmlns="http://www.w3.org/2000/svg">
<path fill-rule="evenodd" clip-rule="evenodd" d="M19.3782 10.8801C17.1594 11.8567 11.7666 11.4262 8.17007 8.92851C5.55092 7.10961 1.40726 1.6481 0.248286 2.43505C-0.822435 3.16199 1.8429 6.74358 3.05565 8.35986C4.26839 9.97597 9.13126 14.4171 13.6809 14.9257C16.0343 15.1888 21.569 15.7052 21.569 17.3842C21.569 18.5165 16.524 20.7165 13.9987 21.2599C10.3559 22.0437 6.98437 20.5372 6.43029 20.9003C5.63719 21.4202 5.99679 22.8862 5.13144 23.8676C3.78706 25.3923 0.319051 26.3432 0.39856 27.8215C0.459923 28.9642 2.13124 30.15 3.30803 29.9845C4.435 29.826 7.39313 28.6325 9.56624 27.2983C11.7544 25.9549 17.1893 23.6836 20.3977 23.3393C24.4836 22.9011 28.8044 25.2382 31.7767 24.808C34.5483 24.407 35.2258 23.1457 37.1566 21.4479C38.4894 20.2758 39.3818 19.0334 42.6116 19.0209C46.4679 19.0059 51.9883 23.0208 55.8949 24.8928C59.4601 26.6009 60.2886 27.3718 65.1157 26.8398C68.9476 26.4175 69.824 25.4982 72.2572 24.6857C74.6722 23.8793 75.9862 23.2852 79.1283 23.1136C81.403 22.9893 82.4254 23.2617 83.4163 23.9147C85.0462 24.9891 86.8554 26.6647 87.4756 27.3868C88.2156 28.2482 91.9563 28.2392 92.7626 27.1921C93.6034 26.1005 91.9649 25.176 91.6551 25.0103C90.7793 24.5417 89.8998 23.7304 88.7651 22.0353C87.6678 20.3961 87.0459 19.594 84.8271 19.4301C82.7672 19.2778 78.25 20.4297 75.4684 19.92C72.8534 19.4408 71.3216 18.5607 70.289 17.3116C69.5637 16.4345 71.2896 14.5166 72.0963 14.3445C73.7407 13.9937 73.4217 15.0207 75.3284 15.4141C77.021 15.7633 77.6587 15.0189 78.9689 14.9049C80.3613 14.7836 81.3076 15.4273 82.4651 15.9347C83.6515 16.4548 84.6666 16.8844 86.2675 16.0107C87.0538 15.5814 88.9152 14.4675 88.2725 13.0488C87.9418 12.319 85.7702 10.862 83.2246 10.0198C80.9868 9.27953 81.5516 7.3805 80.4124 6.66048C78.3249 5.34098 76.05 5.61122 75.0204 4.76244C73.8421 3.79132 71.1262 -0.00329537 69.6597 2.14783e-06C67.0681 0.00593767 68.8534 2.85862 68.1141 2.95705C66.4632 3.1765 64.9536 1.42601 63.1748 2.45616C61.1236 3.64408 59.1666 3.44376 59.1405 5.16589C59.1188 6.60822 64.0178 5.39358 63.8312 6.81876C63.6187 8.44213 57.6457 9.52932 56.3591 9.75883C54.4692 10.096 46.3044 8.7122 42.3906 7.33812C38.2045 5.86859 31.6751 5.11593 27.6931 6.25687C23.8375 7.36154 21.597 9.90375 19.3782 10.8801Z" fill="white"/>
</svg>
