<svg width="1160" height="60" viewBox="0 0 1160 60" fill="none" xmlns="http://www.w3.org/2000/svg">
<path fill-rule="evenodd" clip-rule="evenodd" d="M552.378 25.8801C550.159 26.8567 544.767 26.4262 541.17 23.9285C538.551 22.1096 534.407 16.6481 533.248 17.4351C532.178 18.162 534.843 21.7436 536.056 23.3599C537.268 24.976 542.131 29.4171 546.681 29.9257C549.034 30.1888 554.569 30.7052 554.569 32.3842C554.569 33.5165 549.524 35.7165 546.999 36.2599C543.356 37.0437 539.984 35.5372 539.43 35.9003C538.637 36.4202 538.997 37.8862 538.131 38.8676C536.787 40.3923 533.319 41.3432 533.399 42.8215C533.46 43.9642 535.131 45.15 536.308 44.9845C537.435 44.826 540.393 43.6325 542.566 42.2983C544.754 40.9549 550.189 38.6836 553.398 38.3393C557.484 37.9011 561.804 40.2382 564.777 39.808C567.548 39.407 568.226 38.1457 570.157 36.4479C571.489 35.2758 572.382 34.0334 575.612 34.0209C579.468 34.0059 584.988 38.0208 588.895 39.8928C592.46 41.6009 593.289 42.3718 598.116 41.8398C601.948 41.4175 602.824 40.4982 605.257 39.6857C607.672 38.8793 608.986 38.2852 612.128 38.1136C614.403 37.9893 615.425 38.2617 616.416 38.9147C618.046 39.9891 619.855 41.6647 620.476 42.3868C621.216 43.2482 624.956 43.2392 625.763 42.1921C626.603 41.1005 624.965 40.176 624.655 40.0103C623.779 39.5417 622.9 38.7304 621.765 37.0353C620.668 35.3961 620.046 34.594 617.827 34.4301C615.767 34.2778 611.25 35.4297 608.468 34.92C605.853 34.4408 604.322 33.5607 603.289 32.3116C602.564 31.4345 604.29 29.5166 605.096 29.3445C606.741 28.9937 606.422 30.0207 608.328 30.4141C610.021 30.7633 610.659 30.0189 611.969 29.9049C613.361 29.7836 614.308 30.4273 615.465 30.9347C616.651 31.4548 617.667 31.8844 619.268 31.0107C620.054 30.5814 621.915 29.4675 621.273 28.0488C620.942 27.319 618.77 25.862 616.225 25.0198C613.987 24.2795 614.552 22.3805 613.412 21.6605C611.325 20.341 609.05 20.6112 608.02 19.7624C606.842 18.7913 604.126 14.9967 602.66 15C600.068 15.0059 601.853 17.8586 601.114 17.957C599.463 18.1765 597.954 16.426 596.175 17.4562C594.124 18.6441 592.167 18.4438 592.141 20.1659C592.119 21.6082 597.018 20.3936 596.831 21.8188C596.619 23.4421 590.646 24.5293 589.359 24.7588C587.469 25.096 579.304 23.7122 575.391 22.3381C571.205 20.8686 564.675 20.1159 560.693 21.2569C556.837 22.3615 554.597 24.9038 552.378 25.8801Z" fill="white"/>
</svg>
